<svg width="32" height="32" viewBox="0 0 32 32" fill="none" xmlns="http://www.w3.org/2000/svg">
<g clip-path="url(#clip0_68_241)">
<path fill-rule="evenodd" clip-rule="evenodd" d="M15.1 1.58001L10.97 10.46L1.10999 11.73C0.919239 11.7538 0.739398 11.8322 0.592008 11.9556C0.444617 12.079 0.335924 12.2423 0.278945 12.4259C0.221965 12.6095 0.219114 12.8056 0.270733 12.9908C0.322352 13.176 0.426253 13.3424 0.569994 13.47L7.86999 20.04L5.89999 29.89C5.86289 30.0783 5.88076 30.2734 5.95149 30.4518C6.02222 30.6302 6.1428 30.7846 6.29885 30.8963C6.4549 31.0081 6.63982 31.0726 6.83153 31.0821C7.02324 31.0916 7.21364 31.0458 7.37999 30.95L16 25.95L24.63 30.95C24.7963 31.0458 24.9867 31.0916 25.1785 31.0821C25.3702 31.0726 25.5551 31.0081 25.7111 30.8963C25.8672 30.7846 25.9878 30.6302 26.0585 30.4518C26.1292 30.2734 26.1471 30.0783 26.11 29.89L24.14 20.04L31.44 13.47C31.5808 13.3412 31.6819 13.1747 31.7311 12.9902C31.7804 12.8058 31.7759 12.6111 31.718 12.4292C31.6602 12.2473 31.5515 12.0857 31.4047 11.9636C31.258 11.8414 31.0794 11.7639 30.89 11.74L21.03 10.46L16.91 1.58001C16.8304 1.40542 16.7024 1.2574 16.541 1.1536C16.3797 1.0498 16.1918 0.994614 16 0.994614C15.8081 0.994614 15.6203 1.0498 15.459 1.1536C15.2976 1.2574 15.1695 1.40542 15.09 1.58001H15.1Z" fill="black"/>
</g>
<defs>
<clipPath id="clip0_68_241">
<rect width="32" height="32" fill="white"/>
</clipPath>
</defs>
</svg>
